# xmcd
# 
# Track frame offsets:
#     150
#     16912
#     31487
#     41262
#     52200
#     61400
#     76475
#     87325
#     99562
#     106912
# 
# Disc length: 1627
# 
# Revision: 1
# Processed by: cddbd v1.5.2PL0 Copyright (c) Steve Scherf et al.
# Submitted via: BonkEnc v1.0.6
# 
DISCID=7906590a
DTITLE=Bob Dylan - NASHVILLE SKYLINE
DYEAR=2004
DGENRE=Rock
TTITLE0=Girl From The North Country
TTITLE1=Nashville Skyline Rag
TTITLE2=To Be Alone With You
TTITLE3=I Threw It All Away
TTITLE4=Peggy Day
TTITLE5=Lay　Lady　Lay
TTITLE6=One More Night
TTITLE7=Tell Me That It Isn't True
TTITLE8=Country Pie
TTITLE9=Tonight I'll Be Staying Here With You
EXTD=YEAR: 2004
EXTT0=
EXTT1=
EXTT2=
EXTT3=
EXTT4=
EXTT5=
EXTT6=
EXTT7=
EXTT8=
EXTT9=
PLAYORDER=
